<?xml version="1.0" encoding="utf-8"?>
<!-- Generator: Adobe Illustrator 15.1.0, SVG Export Plug-In . SVG Version: 6.00 Build 0)  -->
<!DOCTYPE svg PUBLIC "-//W3C//DTD SVG 1.1//EN" "http://www.w3.org/Graphics/SVG/1.1/DTD/svg11.dtd">
<svg version="1.1" id="Layer_1" xmlns="http://www.w3.org/2000/svg" xmlns:xlink="http://www.w3.org/1999/xlink" x="0px" y="0px"
	 width="612px" height="792px" viewBox="0 0 612 792" enable-background="new 0 0 612 792" xml:space="preserve">
<g>
	
		<image overflow="visible" opacity="0.5" enable-background="new    " width="2467" height="1542" xlink:href="91E1169.png"  transform="matrix(0.3543 0.1427 -0.1427 0.3543 -95.2495 -178.7783)">
	</image>
	<g opacity="0.5">
		<path fill-rule="evenodd" clip-rule="evenodd" fill="#FFFFFF" d="M-94.895-178.636C196.282-61.331,487.531,56.004,778.701,173.306
			c-73.259,181.847-146.525,363.709-219.784,545.556C268.429,603.754-23.961,484.315-315.32,367.485
			c0.095-0.235,0.19-0.473,0.286-0.708C-241.912,185.27-168.802,3.795-95.678-177.715
			C-95.505-178.231-95.332-178.742-94.895-178.636z"/>
	</g>
	<g>
	</g>
</g>
<path fill="#06EF0B" stroke="#FFFFFF" stroke-miterlimit="10" d="M528.333,307.667c-6.397-11.559-12.401-29.677-20-36
	c-4.885-4.065-17.509-6.375-27-10c-54.337-20.756-104.894-39.64-161-61c-9.586-3.649-19.281-9.777-26-10
	c-6.968-0.23-18.764,5.442-28,9c-61.728,23.776-126.34,48.768-187,71c-14.97,24.03-28.44,49.56-42,75v3
	c6.998,14.002,29.004,12.996,41,22v135c0,14.347-3.238,34.067,2,43c5.409,9.224,35.026,16.271,49,22
	c44.875,18.398,81.552,33.688,126,52c8.073,3.326,19.111,9.899,26,10c8.406,0.122,19.055-6.702,28-10
	c50.102-18.473,90.592-32.875,140-51c15.158-5.561,48.945-14.269,54-23c4.813-8.314,2-29.338,2-43v-135
	c14.681-7.319,35.697-8.303,44-22v-3C544.979,335.644,536.652,322.699,528.333,307.667z M64.333,341.667
	c7.867-16.466,16.7-31.966,26-47c58.792,23.208,117.51,46.491,176,70c-7.873,15.127-16.716,29.283-24,45
	C182.473,387.527,123.916,364.084,64.333,341.667z M270.333,605.667c-57.334-22.333-112.535-46.797-170-69v-74.57
	c-0.103-0.396-0.174-0.803-0.172-1.227c0.003-0.764-0.062-1.532-0.136-2.296c-0.194-1.219-0.109-2.363,0.516-3.477l-0.033-0.014
	c-0.046-0.205-0.104-0.409-0.175-0.609v-75.809c29.187,10.771,74.59,27.999,111,42c11.13,4.28,28.577,14.306,37,13
	c12.5-1.938,13.972-21.942,21-31C271.666,468.334,269.667,538.333,270.333,605.667z M114.333,281.667
	c57.676-24.657,119.31-45.357,178-69c59.577,21.756,118.202,44.465,177,67c-61.479,23.521-125.136,44.864-187,68
	C225.876,326.123,171.149,302.852,114.333,281.667z M484.333,535.667c-63.914,23.754-127.886,47.447-192,71v-211
	c2.249-1.495,5.184,4.982,8,9c5.037,7.186,17.322,31.506,27,33c8.918,1.377,28.066-8.373,40-13c36.819-14.277,82.75-33.03,115-45h2
	V535.667z M334.333,413.667c-14.078-14.256-23.466-33.201-36-49c64.749-24.251,131.025-46.974,196-71
	c11.801,13.532,19.173,31.493,28,48C459.453,365.455,397.306,389.972,334.333,413.667z"/>
</svg>
